<svg xmlns="http://www.w3.org/2000/svg" xmlns:xlink="http://www.w3.org/1999/xlink" viewBox="0 0 1926.39 1024.85"><defs><style>.cls-1{fill:#885d42;}.cls-2{fill:none;}.cls-3{clip-path:url(#clip-path);}.cls-4{fill:#70533c;}.cls-5{clip-path:url(#clip-path-2);}.cls-6{fill:#5d4e3d;}.cls-7{fill:#4b483e;}.cls-8{fill:#39413f;}.cls-9{fill:#273c41;}</style><clipPath id="clip-path"><rect class="cls-1" y="-1088.17" width="1926.39" height="946.72"/></clipPath><clipPath id="clip-path-2"><polyline class="cls-2" points="1926.39 0 1926.39 946.72 0 946.72 0 0"/></clipPath></defs><title>rude_top</title><g id="Warstwa_4" data-name="Warstwa 4"><rect class="cls-1" y="-1088.17" width="1926.39" height="946.72"/><g class="cls-3"><path class="cls-4" d="M901.2-71.27c-47.74-35.14-97.59-69-154.14-89.92-32.29-11.93-70.67-19.74-104.95-20.47-31.77-.69-62.19,6.95-93.55-2.13-64.82-18.75-125.65-55.8-183.6-91.32-54.4-33.35-110.81-85.92-179.42-76.62-28.55,3.87-76.71,11.32-54.83,48.36,16.65,28.17,35.49,55.29,54,82.54,23.71,34.9,47.65,74.47,79.7,102.05C305.79-81.92,347.5-38.26,390.53-.54c21.58,18.91,42.57,38,60.8,60.38,24.43,30,41,65.6,63.34,97.38,19.46,27.74,38.48,55.48,57.71,83.51,29.24,42.63,47.15,96,83.44,133.56C690.75,410.43,711.39,424,766,428.71c27.27,2.34,53.16-12.67,78.9-22.87C914.86,378.12,989,351.4,1051,308c19.44-13.59,34.15-33.09,53.26-47.05,18.5-13.52,41.48-15.32,60.24-26.51,27.1-16.16,11.08-38.54-5.71-54.39-20.85-19.68-38.27-39.47-57.67-60.74-24.31-26.66-51.25-49.8-76.55-75.42-15.28-15.47-27.49-33.46-42.53-49-27.49-28.46-61.54-51.29-90.52-78"/><path class="cls-4" d="M1274.12-179.7c-64.5,9.52-141,7.14-187.38,55.94-19.87,20.88-52.79,56.81-12.55,72,30.6,11.58,62.27,21,93.76,30.64,40.33,12.4,83.76,28.31,126,29.79,55.34,2.89,115.18,10.87,172.36,13.4,28.66,1.27,57,3,85.19,9.09,37.81,8.11,73,25.52,110.33,36.38,32.53,9.48,64.72,19.23,97.26,29.08,49.48,15,96.83,45.43,148.64,52,49.85,6.35,74.46,4,120-26.42,22.74-15.23,33.56-43.13,47.27-67.19,37.28-65.4,78.41-132.6,99.71-205.25,6.67-22.76,6-47.17,12.13-70,6-22.11,22.79-37.9,30.43-58.36,11-29.56-15.45-37-38.47-38.87-28.57-2.32-54.54-6.86-83-11.33a250,250,0,0,0-74.7-.49c-9.78,1.34-17.44,4.37-26.39-1.82-29.5-20.42-13-94.69-17.37-125-2-14-7.28-30.56-21-34-16.06-4-28.74,12.58-40.21,24.51-24.69,25.69-61.2,35.44-91.75,53.77-38,22.77-67.69,59.46-109.31,74.59-31.69,11.52-66.92,9.18-99.15,19.08-27.1,8.32-50.76,24.85-75,39.59-74.33,45.26-157.15,75-241.76,94.26C1291.1-182.45,1282.71-181,1274.12-179.7Z"/></g><g class="cls-5"><path class="cls-4" d="M975.26-116.43c26.2,11.13,54.18,13.77,72,37.92,16.72,22.67,17,52.12,38.64,72.46,20.45,19.25,49.91,27.39,74.27,39.33,28.56,14,54.27,34.61,72.88,60.29,13.43,18.53,21.21,40.19,36,58.05s35.71,30.93,54.08,46c54.23,44.47,112.66,68.66,178.78,93.14,35.66,13.2,74.91,26,112.89,29.79,31.36,3.14,60,18.54,92.21,19.53,21.75.67,42.93-7,64.16-6.66,23,.38,52.09,5.11,74.18,11.6,22.47,6.61,47,19.83,69.39,9.23,17.18-8.11,31.85-27.28,38.94-44.85,9.7-24,10.87-50.56,9.55-76.1-1.29-25,11-48.07,14.06-73.6,6.23-52.37-4-110.61-36.25-153.42-28.57-38-72.66-54.17-117-67.56-40.34-12.16-80.55-26.29-120.1-40.13-45.15-15.79-103.94-11.58-151.29-12.87-106.65-2.89-213.44,2.49-319.53,13.39-69.33,7.13-150.86,18.2-217.36-8.79-12.3-5-27.88-5.94-38.91-11.34"/><path class="cls-4" d="M256.79,363.06c57.36-14.94,115.06-32.33,166.92-63.09,29.61-17.56,59.85-42.45,82-68.61,20.54-24.25,33.76-52.69,60.57-71.33C621.68,121.51,688.77,97.59,752.86,75,813,53.7,889.39,43,925.38-16.15c15-24.61,39.53-66.71-3-73-32.36-4.82-65.3-7.26-98.13-10-42-3.57-87.86-9.9-129.47-2.38C640.08-92.69,579.9-87.79,523.49-78.13c-28.27,4.85-56.33,9.12-85.18,9.19-38.67.1-76.81-9.43-115.53-12.14-33.81-2.35-67.34-5-101.22-7.77C170-93,117.29-112.7,65.26-108.16,15.2-103.8-8.36-96.33-46.38-56.89-65.37-37.18-70-7.62-78.32,18.8-100.87,90.62-126.8,165-132.2,240.53c-1.69,23.66,4.19,47.36,3,71-1.16,22.88-14.23,41.87-17.36,63.48-4.52,31.23,23,32.89,45.85,29.83C-72.3,401-45.95,400-17.22,398.3c36-2.09,71-8.44,106.81-11.95,21.63-2.12,43.3-.28,64.88-2.14"/><path class="cls-6" d="M12,679.61C-6.25,686.1-24.17,693.85-40.68,704-54.2,712.38-64.47,729.88-76.44,715c-10.47-13.05-12.63-42.6-16.26-58.64-4-17.8-7.64-35.7-12-53.42-19.57-79.27-33.21-160.73-30.1-242.63C-132,286-103.2,218.55-98.27,144.93c1.61-24,8.88-45.32,15-68.31C-71.92,34.46-52.55-6.32-15.44-31.81,14.32-52.24,51.91-42.23,86-49.61c27-5.84,50-21.86,76.26-29.29,24.68-7,49.31-15.77,74.1-23.49,97-30.19,223.82-30,320.65,5.94,10.31,3.82,34.9,12.58,37.67,24.83s-26.44,34-34.59,43.29A283.45,283.45,0,0,1,523.8,6.94c-27,21.67-52.53,41.34-76.28,66.71-14.49,15.47-26,28.13-36,46.69-7.84,14.5-12.7,30.15-20.18,44.72-15,29.21-41,62.18-71.06,76-34.5,15.89-64.3,32.34-80.6,69.59-13.28,30.35-7.23,56.58-7.4,88.23-.33,62.19-43.75,116.93-73.52,168.17-20.38,35.09-42.69,60.48-78.82,79.39C57,658.5,36.48,670.9,12,679.61Z"/><path class="cls-6" d="M1995.63,388.31c10.89,65.53,13.6,134.14,11.49,200.73-1,30.82-2.35,62.43.17,92.85,2,24,4.1,47.58,3.11,71.69-.46,11.19,1.71,26.6-7.1,35.57-25.79,26.28-74.77.63-102-10-36-14.07-71.72-31.22-99.46-58.72-22.18-22-38.48-50.47-43.28-81.33-3.78-24.36-.39-49-1.26-73.49-.82-23.53-1.51-46.54,8.67-68.54s30-39.78,35-63.57c11-51.9-35.36-102.54-56.14-145.86-17.83-37.15-57-62.5-94-82.48-38.07-20.56-69.59-48.66-105.23-72.42-16.48-11-33.25-23.09-43.06-39.82-8.75-14.93-13.45-27.3-25.77-40-14.37-14.81-26.2-28.54-47.69-33.73-21.77-5.24-45.65-3.31-66.38-11.46-33.12-13-51.5-42.59-61.21-72-4.25-12.92-10.77-18.38-.44-30.28,16.43-18.92,51.44-21.52,75.67-25.19a957.32,957.32,0,0,1,267.79-2.73c40.47,5.28,81.58,15.71,120.62,26.23,49.15,13.24,92.48,24,128.45,58.65,37.22,35.84,66.79,87.45,74.9,136.6,7.23,43.81-18.82,89.22-14.83,133.91,2,22.85,20.49,41.79,25.36,64.19C1985.48,327.25,1990.57,357.84,1995.63,388.31Z"/><path class="cls-7" d="M655.09-107.23C655.84-76,652-38.82,643.24-7.82,632,31.9,591.6,46.48,555.47,58.64,524,69.23,493.2,73.21,460.37,75.06c-34.19,1.94-75.56.08-107.07,14.21-38.53,17.28-68.37,51.08-106.43,70.05-48.29,24.06-109.68,36.24-163.13,38.3-21.9.84-44.78,1.11-66.65,0C-9.27,196.4-50.45,205.35-61.57,176c-6.13-16.17-4.59-37-4.88-54.5-.6-36.64.76-74,3-110.54,1.74-28,7-67.4,26.79-87.52,23.93-24.3,55.91-27.9,87.33-32.38,38-5.42,75.64-8.88,114-11.35,83-5.32,164.67-11.37,248-11.47,61.9-.08,123.64,2.91,185.48,4.59,27.81.76,31.87,20,55.34,29.11"/><path class="cls-8" d="M195.1-52.93c37,1.44,62.26-.54,60,47.33-1.8,38.18-29.46,71.22-51.87,99.94C174.64,131,168.2,160.6,174.85,204.58c2.55,16.85,11.38,34.15,10.56,51.18-.83,17.19-10.67,35.32-18.8,49.81-10.8,19.29-24,35.79-38.72,52.22-16.53,18.4-28.13,40.3-43.71,59.48-25.74,31.69-58.53,57.16-92,80.12-23.74,16.26-70.94,29.25-68.07,66.38-1.07-13.85,1.71-26.25-.25-40.37-2.54-18.29-5.82-36-7.29-54.45-4.37-54.49-7.14-109.08-11.18-163.57-4.69-63.08-5.11-125.55-4.45-188.83.29-27.66,2.34-54.71,4.55-82.4,1.72-21.68,9.51-49.6,3.32-70,28.35-18.91,61-26.86,93.89-28.47,40-2,79.6-5.6,119.64-3.83C148-67,171.18-53.86,195.1-52.93Z"/><path class="cls-7" d="M1278.94-84.13c21.79,55.26,31.67,114.05,56.77,167.55,15.23,32.47,38.55,45.34,64.93,62.6,26.2,17.14,51.58,36.13,80.5,47.39,55.24,21.5,103.86-14.23,158-19.79,28.3-2.91,56.55-10.23,84.68.85,16.52,6.5,40.44,18.24,51.13,32.3,10.46,13.77,20.17,28.9,30.26,43,13,18.18,13.24,43.88,22,65.06a74.43,74.43,0,0,0,28.71,34c17.34,10.7,61.93,18.34,80.67,6.3,29-18.6,27.13-76.36,41.83-104.8,18.79-36.36,6.72-77.77,2.53-116.57-5.41-50-15.72-127.31-59.9-146.55-29.62-12.9-65.22-15.39-96-23.23-40.16-10.22-79.64-21.3-120.73-26.13-90.36-10.62-183.79-24.34-274.94-18.4-34.55,2.25-68,3.77-102.62,3.82-11.39,0-45.36-9.53-53.88,1.84"/><path class="cls-8" d="M1856.11-122.07c11.53,19.09,6.12,49.42,1.18,70-5.43,22.71-22.9,38.84-28.75,60.57-13.2,49.05-.8,96.91,1.52,146.31,1.06,22.48-3.87,45.81,1.46,68.12,4.6,19.26,17.56,41.83,25.54,60,9.41,21.44,17.34,42.17,15.13,65.81-2.83,30.25-8.06,58.42,2.32,87.68,11.31,31.91,32.67,58.46,59.9,78.85,11.59,8.69,23.76,20.29,37.94,23.23,11.19,2.33,21.34-2.38,26.3,11.54,6.41-29.71,3.25-64.79,3-95.44-.51-59.93-18.2-118.23-18.14-177.67.08-70.66,4-140.56-6.37-210.55-6.73-45.5-24.21-92.73-39.44-136.14-7.35-20.93-53.78-86.24-80-58.49"/><path class="cls-9" d="M-169.53,357.62c4.27-21.89,28.65-40.74,46.16-52.71,19.28-13.17,43.05-13.4,62-25.57,42.72-27.48,65.67-71.26,97.13-109.44,14.31-17.36,33.63-31.33,44.66-51.44,9.53-17.37,15.08-42.8,21.37-61.62,7.43-22.2,15.47-42.89,33-58.92C157.17-22.59,180-39.95,191.92-68.6c13-31.24,15-65.26,8.56-98.66-2.75-14.22-4-31-12.51-42.69-6.73-9.24-17.41-12.56-11.74-26.21-24.7,17.71-45.91,45.82-66.31,68.72C70.06-122.7,44-67.62,4.05-23.62-43.46,28.68-93.29,77.85-132.62,136.67c-25.57,38.23-44.34,85-62.2,127.36-8.61,20.44-18.06,100,20,97.1"/><path class="cls-9" d="M1410.35-4.88c14.53,7.47,31.26,12.32,45.49,20.19,19.6,10.85,34.93,25.8,53.24,37.72,28.59,18.62,54.63,40.83,84.36,58.15,31,18,67.88,18.51,105.07,25.73,40.35,7.84,81.61,7.47,123.68,7.8,51.59.41,123.19,10.88,175.06-4.66,7.15-43-22.21-89-38.81-125.9-23.56-52.43-45.37-100.32-85.35-144.28-12.33-13.54-19.67-26.08-42.18-27.19-34.66-1.72-78.75,9.81-112.57,18.19-79.1,19.61-157.93,43.42-233.31,75-23.18,9.72-54.87,14.76-76.11,27.61-33.29,20.14,14.08,32.1,33.53,39.83"/></g></g></svg>