<svg xmlns="http://www.w3.org/2000/svg" xmlns:xlink="http://www.w3.org/1999/xlink" viewBox="0 0 1926.39 1024.85"><defs><style>.cls-1{fill:none;}.cls-2{clip-path:url(#clip-path);}.cls-3{fill:#70533c;}.cls-4{fill:#4b483e;}.cls-5{fill:#39413f;}.cls-6{fill:#5d4e3d;}.cls-7{fill:#273c41;}</style><clipPath id="clip-path"><polyline class="cls-1" points="1926.39 76.53 1926.39 1023.26 0 1023.26 0 76.53"/></clipPath></defs><title>rude_bottom</title><g id="Warstwa_4" data-name="Warstwa 4"><g class="cls-2"><path class="cls-3" d="M901.2,1093.43c-47.74-35.14-97.59-69-154.14-89.91-32.29-11.94-70.67-19.74-104.95-20.48-31.77-.68-62.19,7-93.55-2.12-64.82-18.76-125.65-55.8-183.6-91.32-54.4-33.35-110.81-85.92-179.42-76.62-28.55,3.87-76.71,11.31-54.83,48.36,16.65,28.16,35.49,55.28,54,82.53,23.71,34.9,47.65,74.48,79.7,102.06,41.37,36.86,83.08,80.51,126.11,118.24,21.58,18.91,42.57,38,60.8,60.37,24.43,30,41,65.6,63.34,97.38,19.46,27.74,38.48,55.48,57.71,83.52,29.24,42.63,47.15,96,83.44,133.56,34.93,36.13,55.57,49.73,110.15,54.41,27.27,2.34,53.16-12.66,78.9-22.86,70-27.72,144.11-54.44,206.16-97.81,19.44-13.59,34.15-33.09,53.26-47,18.5-13.51,41.48-15.32,60.24-26.5,27.1-16.16,11.08-38.55-5.71-54.4-20.85-19.67-38.27-39.46-57.67-60.73-24.31-26.66-51.25-49.8-76.55-75.43-15.28-15.46-27.49-33.46-42.53-49-27.49-28.47-61.54-51.29-90.52-78.06"/><path class="cls-3" d="M1274.12,985c-64.5,9.51-141,7.13-187.38,55.93-19.87,20.88-52.79,56.81-12.55,72,30.6,11.57,62.27,21,93.76,30.63,40.33,12.41,83.76,28.32,126,29.8,55.34,2.89,115.18,10.87,172.36,13.4,28.66,1.26,57,3,85.19,9.09,37.81,8.11,73,25.52,110.33,36.38,32.53,9.47,64.72,19.22,97.26,29.07,49.48,15,96.83,45.44,148.64,52,49.85,6.36,74.46,4.06,120-26.42,22.74-15.23,33.56-43.12,47.27-67.18,37.28-65.4,78.41-132.61,99.71-205.25,6.67-22.76,6-47.17,12.13-70,6-22.11,22.79-37.89,30.43-58.35,11-29.56-15.45-37-38.47-38.88-28.57-2.31-54.54-6.86-83-11.33a249.61,249.61,0,0,0-74.7-.48c-9.78,1.33-17.44,4.37-26.39-1.82-29.5-20.42-13-94.69-17.37-125.06-2-14-7.28-30.55-21-34-16.06-4-28.74,12.58-40.21,24.51-24.69,25.68-61.2,35.44-91.75,53.76-38,22.78-67.69,59.46-109.31,74.6-31.69,11.52-66.92,9.17-99.15,19.07-27.1,8.32-50.76,24.86-75,39.6-74.33,45.26-157.15,75-241.76,94.26C1291.1,982.26,1282.71,983.74,1274.12,985Z"/><path class="cls-4" d="M344.11,1150.37c-20.75,17.68-12-17-12.19-25-.36-16.22-9.95-30.81-21.1-42.05-21.06-21.21-53.45-28.23-77.39-46-22.8-17-38.78-34-39.45-64.52-.78-35.33,11.1-68.67,12.25-103.74,1.21-36.63-.42-76.38-9-111.93C193.32,741,185,725.49,178,710.41c-9.37-20.17-15.37-40.16-23.09-61.06C134,592.78,109.37,537.57,62.24,497,46,483,27.06,470.7,8.76,459.62-2.33,452.91-22.1,437-36.49,441c-27.26,7.64-33.28,65.55-38.8,86.81C-90,584.28-104.16,642.71-112,700.75c-8.6,63.73-12.14,131.51-5.94,195.65,3,31.4,3,64,9.36,94.89,5.77,27.82,19.38,55.1,23.74,82.72,47.09,30.91,97.1,65.67,153.49,70.57,51.21,4.46,102.69,2.54,154,5.68,22.41,1.37,43.35,3,65.71,3.12,8,0,15.07,2.56,23.28.43,7.81-2,11.89-8.15,20.25-5"/><path class="cls-4" d="M1641.64,1135.09c33.72-33.7,52.45-62.8,56.34-110.34,1.41-17.26,2.18-37.91,0-55.07-2.36-18.56-9.91-35.37-8.86-54,2.44-43,43.87-73.21,73.53-99.25,33.12-29.1,61.25-56.78,62.82-104.23,1.41-42.79-.16-84.55,23.65-121.24,10.5-16.17,21.53-39.84,36.36-51.75,18.33-14.72,44.18-16.41,67-15.39,19.3.86,44.19-1.48,45.7,19.69,1,13.32-4.11,28.49-4.25,42.32-.4,39.8-1.4,79.62-1.53,119.41-.13,41,.49,80,3.43,120.76,3.19,44.38-5.73,90.21-15.8,133.31-5.26,22.53-12.73,44.11-19.42,66.14-5.42,17.85-7.87,38.76-18.76,54.09-24,33.74-71.22,41.81-109.54,44.75-45.87,3.51-90.7-9.93-135.5.81-11.82,2.83-60,22.5-65.95,10"/><path class="cls-5" d="M-34.28,822.58c22.07,30.62,43.69,48.3,80.07,60.13C96,899.05,143,927.88,195.38,937.47c71.14,13,149.44,3.49,201.23,66.3,10.59,12.85,47.15,64,43.47,82.07-34.58,7.25-74.84-8.56-111.3-7.46-79.42,2.4-156.27,25.83-235.62,29.95a356.42,356.42,0,0,1-62.79-2.24c-18.32-2.29-37.15-7.79-55.34-12.67-13.93-3.73-36.73-5.46-49.5-13.47-18.07-11.32-16.62-37.73-15-56,4-43.48,7.8-84.23,7.58-127.93-.1-20.49,3.72-49.32,19.14-64.71,11.92-11.89,33.91-5.15,46.81,3.51"/><path class="cls-6" d="M1172.11,962.13c8.49-2,17-3.86,25.53-5.56,64.82-12.94,115.32-4,178.62,5.94,56.4,8.88,117.55,10,169.82-13.17,36.83-16.3,92.09-28.23,132.74-29.81,23.83-.93,46.47,2.84,69.8,6.79,38,6.43,112.41,19.91,82,74-16.07,28.55-67.76,38.35-97.76,47.5-73.48,22.42-149.58,34.42-225.9,45.37-77.22,11.07-154.52,19.94-232.71,13.93-36.65-2.82-72-5.06-108.83-5.25-24.28-.12-47.2-1.28-70.67-6.92-12-2.89-23.68-5.26-32.44-13.62-11.82-11.28-30.15-31.79-25.83-48.41,3.85-14.84,28.94-28.41,42.71-36.29C1107.31,980.5,1139.43,969.93,1172.11,962.13Z"/><path class="cls-7" d="M-43.47,505.47c.26,13.34,25.9,19.27,35.24,27.55C6,545.61,12.57,561.24,21.58,577.29,42,613.58,47,657.5,55.68,697.82c7.52,35,2.83,73.58,6.51,109.32,2.76,26.76,3.8,54.24,12,80.21,5.91,18.71,18.48,32.38,28.58,49.37,11.48,19.33,17.68,38.34,32.71,55.94,12.44,14.56,24.28,29.22,35.79,44.31,8.16,10.7,30.77,25.11,35.09,36.85,6.77,18.41-18.27,15.35-29.81,13.13-22.82-4.39-34.06-7.37-56.36-3.24-18.65,3.46-32.66,3.52-51.1-.32-40.92-8.53-93.19-24.42-124.32-52.87C-89.09,999.58-82.18,938-85,896.82c-4.32-62.75-5.14-130-4.42-192.91.63-54.63,5.75-110.43,10.74-164.81,1.14-12.4,3.54-64.48,27.57-45.88"/><path class="cls-5" d="M1469.25,1100.15c-2.91-43.18,48-88.16,83.35-101.62a644.23,644.23,0,0,1,116.51-32.67c41.57-7.37,86.06-22.28,119.33-50.54,39-33.1,46.2-75,66.56-119.72,16.93-37.2,76.63-71.57,117.47-69.55,17.71,57.65,22.74,125.2,28.73,185,5.26,52.37,12,119.69-27.19,160.57-81.85,85.26-235,37.52-334.78,24.84-57-7.24-113.91,10.2-167.32-8.82"/></g></g></svg>